<svg id="visual" viewBox="0 0 900 600" width="900" height="600" xmlns="http://www.w3.org/2000/svg" xmlns:xlink="http://www.w3.org/1999/xlink" version="1.1"><rect x="0" y="0" width="900" height="600" fill="#001220"></rect><path d="M0 312L15 326.5C30 341 60 370 90 382.8C120 395.7 150 392.3 180 396.7C210 401 240 413 270 402.5C300 392 330 359 360 343.7C390 328.3 420 330.7 450 326.3C480 322 510 311 540 304C570 297 600 294 630 300.8C660 307.7 690 324.3 720 330.7C750 337 780 333 810 332.7C840 332.3 870 335.7 885 337.3L900 339L900 601L885 601C870 601 840 601 810 601C780 601 750 601 720 601C690 601 660 601 630 601C600 601 570 601 540 601C510 601 480 601 450 601C420 601 390 601 360 601C330 601 300 601 270 601C240 601 210 601 180 601C150 601 120 601 90 601C60 601 30 601 15 601L0 601Z" fill="#4558ff"></path><path d="M0 451L15 441C30 431 60 411 90 408.2C120 405.3 150 419.7 180 428C210 436.3 240 438.7 270 435.2C300 431.7 330 422.3 360 406.5C390 390.7 420 368.3 450 355.8C480 343.3 510 340.7 540 346.8C570 353 600 368 630 375.3C660 382.7 690 382.3 720 376.2C750 370 780 358 810 370C840 382 870 418 885 436L900 454L900 601L885 601C870 601 840 601 810 601C780 601 750 601 720 601C690 601 660 601 630 601C600 601 570 601 540 601C510 601 480 601 450 601C420 601 390 601 360 601C330 601 300 601 270 601C240 601 210 601 180 601C150 601 120 601 90 601C60 601 30 601 15 601L0 601Z" fill="#636cff"></path><path d="M0 483L15 480.8C30 478.7 60 474.3 90 471.7C120 469 150 468 180 462.7C210 457.3 240 447.7 270 444.5C300 441.3 330 444.7 360 435.8C390 427 420 406 450 406.2C480 406.3 510 427.7 540 436.8C570 446 600 443 630 444.2C660 445.3 690 450.7 720 443.5C750 436.3 780 416.7 810 409.8C840 403 870 409 885 412L900 415L900 601L885 601C870 601 840 601 810 601C780 601 750 601 720 601C690 601 660 601 630 601C600 601 570 601 540 601C510 601 480 601 450 601C420 601 390 601 360 601C330 601 300 601 270 601C240 601 210 601 180 601C150 601 120 601 90 601C60 601 30 601 15 601L0 601Z" fill="#7b7fff"></path><path d="M0 436L15 439.7C30 443.3 60 450.7 90 457.5C120 464.3 150 470.7 180 473C210 475.3 240 473.7 270 479C300 484.3 330 496.7 360 502.7C390 508.7 420 508.3 450 496.5C480 484.7 510 461.3 540 452C570 442.7 600 447.3 630 451.3C660 455.3 690 458.7 720 455.8C750 453 780 444 810 451C840 458 870 481 885 492.5L900 504L900 601L885 601C870 601 840 601 810 601C780 601 750 601 720 601C690 601 660 601 630 601C600 601 570 601 540 601C510 601 480 601 450 601C420 601 390 601 360 601C330 601 300 601 270 601C240 601 210 601 180 601C150 601 120 601 90 601C60 601 30 601 15 601L0 601Z" fill="#9193ff"></path><path d="M0 478L15 488.5C30 499 60 520 90 529.2C120 538.3 150 535.7 180 526.7C210 517.7 240 502.3 270 498.8C300 495.3 330 503.7 360 506.7C390 509.7 420 507.3 450 512.3C480 517.3 510 529.7 540 531.8C570 534 600 526 630 527.3C660 528.7 690 539.3 720 533.8C750 528.3 780 506.7 810 505.7C840 504.7 870 524.3 885 534.2L900 544L900 601L885 601C870 601 840 601 810 601C780 601 750 601 720 601C690 601 660 601 630 601C600 601 570 601 540 601C510 601 480 601 450 601C420 601 390 601 360 601C330 601 300 601 270 601C240 601 210 601 180 601C150 601 120 601 90 601C60 601 30 601 15 601L0 601Z" fill="#a5a6ff"></path><path d="M0 570L15 563.5C30 557 60 544 90 542.8C120 541.7 150 552.3 180 552C210 551.7 240 540.3 270 538.3C300 536.3 330 543.7 360 550.7C390 557.7 420 564.3 450 561.7C480 559 510 547 540 539.5C570 532 600 529 630 526C660 523 690 520 720 522.7C750 525.3 780 533.7 810 533.8C840 534 870 526 885 522L900 518L900 601L885 601C870 601 840 601 810 601C780 601 750 601 720 601C690 601 660 601 630 601C600 601 570 601 540 601C510 601 480 601 450 601C420 601 390 601 360 601C330 601 300 601 270 601C240 601 210 601 180 601C150 601 120 601 90 601C60 601 30 601 15 601L0 601Z" fill="#b9baff"></path></svg>